<svg id="visual" viewBox="0 0 900 1500" width="900" height="1500" xmlns="http://www.w3.org/2000/svg" xmlns:xlink="http://www.w3.org/1999/xlink" version="1.1"><path d="M124 0L109 115L111 231L96 346L94 462L122 577L101 692L139 808L126 923L108 1038L100 1154L101 1269L139 1385L119 1500L0 1500L0 1385L0 1269L0 1154L0 1038L0 923L0 808L0 692L0 577L0 462L0 346L0 231L0 115L0 0Z" fill="#44cf6c"></path><path d="M107 0L80 115L92 231L107 346L94 462L116 577L100 692L116 808L105 923L72 1038L109 1154L90 1269L93 1385L104 1500L0 1500L0 1385L0 1269L0 1154L0 1038L0 923L0 808L0 692L0 577L0 462L0 346L0 231L0 115L0 0Z" fill="#00b5a7"></path><path d="M76 0L64 115L65 231L84 346L69 462L61 577L85 692L60 808L73 923L84 1038L83 1154L74 1269L83 1385L69 1500L0 1500L0 1385L0 1269L0 1154L0 1038L0 923L0 808L0 692L0 577L0 462L0 346L0 231L0 115L0 0Z" fill="#0094af"></path><path d="M48 0L59 115L66 231L59 346L64 462L50 577L38 692L48 808L55 923L53 1038L45 1154L43 1269L60 1385L56 1500L0 1500L0 1385L0 1269L0 1154L0 1038L0 923L0 808L0 692L0 577L0 462L0 346L0 231L0 115L0 0Z" fill="#467193"></path><path d="M24 0L33 115L38 231L25 346L33 462L26 577L42 692L38 808L42 923L26 1038L33 1154L35 1269L23 1385L37 1500L0 1500L0 1385L0 1269L0 1154L0 1038L0 923L0 808L0 692L0 577L0 462L0 346L0 231L0 115L0 0Z" fill="#505168"></path></svg>