<svg id="visual" viewBox="0 0 900 1500" width="900" height="1500" xmlns="http://www.w3.org/2000/svg" xmlns:xlink="http://www.w3.org/1999/xlink" version="1.1"><path d="M778 1500L793 1385L791 1269L806 1154L808 1038L780 923L801 808L763 692L776 577L794 462L802 346L801 231L763 115L783 0L900 0L900 115L900 231L900 346L900 462L900 577L900 692L900 808L900 923L900 1038L900 1154L900 1269L900 1385L900 1500Z" fill="#44cf6c"></path><path d="M795 1500L822 1385L810 1269L795 1154L808 1038L786 923L802 808L786 692L797 577L830 462L793 346L812 231L809 115L798 0L900 0L900 115L900 231L900 346L900 462L900 577L900 692L900 808L900 923L900 1038L900 1154L900 1269L900 1385L900 1500Z" fill="#00b5a7"></path><path d="M826 1500L838 1385L837 1269L818 1154L833 1038L841 923L817 808L842 692L829 577L818 462L819 346L828 231L819 115L833 0L900 0L900 115L900 231L900 346L900 462L900 577L900 692L900 808L900 923L900 1038L900 1154L900 1269L900 1385L900 1500Z" fill="#0094af"></path><path d="M854 1500L843 1385L836 1269L843 1154L838 1038L852 923L864 808L854 692L847 577L849 462L857 346L859 231L842 115L846 0L900 0L900 115L900 231L900 346L900 462L900 577L900 692L900 808L900 923L900 1038L900 1154L900 1269L900 1385L900 1500Z" fill="#467193"></path><path d="M878 1500L869 1385L864 1269L877 1154L869 1038L876 923L860 808L864 692L860 577L876 462L869 346L867 231L879 115L865 0L900 0L900 115L900 231L900 346L900 462L900 577L900 692L900 808L900 923L900 1038L900 1154L900 1269L900 1385L900 1500Z" fill="#505168"></path></svg>